<svg xmlns="http://www.w3.org/2000/svg" xml:space="preserve" viewBox="0 0 521.575 388.346">
<path fill="black" d="M288.945 210.549c3.894-2.41 7.406-5.301 10.667-8.502 3.88-3.809 7.778-7.6 11.589-11.477 1.444-1.47 3.102-2.267 5.09-2.656 5.996-1.173 12.013-2.257 17.881-4.011 3-.897 5.848-2.141 8.629-3.564.542-.277 1.231-.852 1.748-.379.525.48.155 1.304-.046 1.923-.415 1.278-1.262 2.303-2.173 3.269-3.426 3.632-7.45 6.529-11.564 9.299-2.979 2.006-6.033 3.9-9.074 5.857.401.204.693-.083.988-.203 3.407-1.381 6.825-2.735 10.159-4.289.434-.202.904-.619 1.419-.114.47.461.383 1.038.265 1.577-.148.677-.556 1.228-1.035 1.727-1.145 1.192-2.501 2.117-3.866 3.023-3.696 2.452-7.42 4.863-11.112 7.321-1.279.851-2.469 1.826-3.451 3.08 1.489-.735 2.971-1.486 4.472-2.195.437-.207.981-.687 1.405-.144.448.574.007 1.192-.365 1.616-.522.594-1.177 1.076-1.799 1.577-2.746 2.212-5.384 4.523-7.275 7.56-.16.257-.441.464-.706.628-14.3 8.819-29.334 15.962-45.755 19.893-4.79 1.147-9.654 1.873-14.599 1.745-3.09-.08-6.153-.438-8.964-1.862-1.42-.72-2.845-1.488-3.428-3.145.372-.368.812-.201 1.245-.176 4.619.277 9.23.556 13.858-.017 9.386-1.163 17.21-5.553 24.357-11.469 4.628-3.831 7.955-8.573 10.348-14.032.287-.658.165-1.574 1.092-1.86"/>
<path fill="black" d="M226.117 172.858c-1.688.501-3.449.59-5.174.881-.61.103-.902.329-1.107.876-1.109 2.955-2.098 5.946-2.787 9.029-.276 1.233.293 1.937 1.574 2.155 1.43.244 2.866.177 4.302.199 2.391-.132 4.819-.365 7.161.09 3.225.627 4.969 2.001 5.358 4.562.289 1.898.07 3.817-.578 5.674-1.288 3.693-3.202 7.056-5.362 10.286-5.323 7.963-12.018 14.726-18.89 21.31-3.805 3.645-7.896 6.985-11.887 10.43-.997.86-2.167 1.497-3.167 2.364-.312.271-.696.589-1.184.282-.026-1.133.448-2.074 1.112-2.952 7.611-10.073 15.226-20.143 22.816-30.233 1.028-1.367 1.934-2.827 2.862-4.266.225-.349.591-.773.3-1.207-.358-.533-.981-.48-1.535-.416-2.101.245-4.198.526-6.299.773-.712.084-1.432.109-2.148.162-1.521.17-3.025.228-4.427-.562-.424-.239-.842-.469-1.004-.971-.061-.628.489-.859.818-1.226.479-.533.773-1.113.543-1.837-.234-.736-.824-1-1.532-1.126-1.017-.181-2.057-.346-2.564-1.445-.377-1.798.245-3.484.64-5.179.748-3.202 2.014-6.233 3.4-9.197 5.977-12.776 13.925-24.276 22.919-35.085.56-.673.918-1.633 2.01-1.691.621.89.089 1.679-.267 2.443-.67 1.438-1.409 2.844-2.113 4.266-.048.098-.042.222-.064.35.534.22 1-.302 1.513-.11.08.569-.356.68-.737.737-.739.112-1.062.602-1.341 1.216-2.775 6.106-5.529 12.222-8.034 18.446-.47 1.168-.412 1.247.811 1.074.869-.123 1.74-.242 2.608-.374.501-.075 1.04-.192 1.454.272"/>
<path fill="black" d="M226.117 172.858c-1.647-.144-3.246.283-4.838.548-1.245.207-.862-.37-.646-.902.986-2.433 1.97-4.868 3.026-7.271 1.761-4.008 3.598-7.982 5.35-11.994.352-.806.684-1.426 1.694-1.307.305.036.516-.176.651-.445 5.717-1.133 11.431-2.28 17.151-3.397a2514 2514 0 0 1 19.405-3.73c1.522-.285 3.039-.728 4.619-.564 2.818.293 3.822 1.932 2.642 4.491-2.513 5.449-5.493 10.653-8.46 15.863-.277.486-.525.99-.828 1.459-.766 1.183-1.736 2.022-3.232 2.218-5.265.69-10.522 1.431-15.781 2.169-6.72.943-13.438 1.902-20.158 2.85-.193.028-.395.009-.595.012"/>
<path fill="black" d="M288.945 210.549c-.53.594-.518 1.402-.821 2.086-2.581 5.819-6.206 10.816-11.272 14.762-3.029 2.359-6.216 4.453-9.512 6.402-3.803 2.248-8.023 3.222-12.288 4.071-4.135.823-8.294.902-12.48.52-1.504-.137-3.031.036-4.526-.288.072-.998.857-.668 1.394-.713 3.258-.269 6.58-.181 9.76-.907 8.444-1.927 14.627-7.053 19.22-14.24 1.442-2.256 2.781-4.567 3.373-7.23.787-3.536-.505-6.067-3.86-7.352-4.094-1.568-8.02-.807-11.849.96-1.343.62-2.639 1.348-4 1.922-.885.374-1.991.971-2.712-.101-.748-1.112.282-1.776.994-2.482 1.843-1.829 3.709-3.646 4.655-6.161.384-1.02.669-2.048.63-3.149-.033-.934.22-1.824.492-2.701.149-.48.486-.855.911-.277.507.691.788.222 1.093-.128.76-.874 1.471-1.792 2.254-2.645.894-.974 2.045-1.527 3.336-1.765 1.553-.287 2.311.513 1.931 2.049-.124.5-.38.965-.555 1.454-.468 1.308-.087 2.065 1.264 2.443 1.218.34 2.466.225 3.693.087 4.425-.499 8.781-.39 12.976 1.324 4.687 1.914 6.907 6.002 5.981 10.989-.066.349-.057.713-.082 1.07"/>
<path fill="black" d="M231.834 219.167c3.992-.373 7.897-1.308 11.863-1.845 1.459-.197 2.898-.597 4.39-.427 2.363.269 3.957 1.931 3.947 4.325-.017 4.203-2.287 7.202-5.465 9.62-2.587 1.969-5.665 2.376-8.797 2.696-6.906.706-13.802 1.519-20.701 2.297-3.873.437-7.744.892-11.616 1.34-.495.081-1.207.334-1.404-.128-.223-.521.515-.794.894-1.111 5.813-4.852 11.871-9.413 17.402-14.597 1.125-1.054 2.452-1.188 3.812-1.335.858-.093 1.694-.293 2.548-.385l.023-.006c1.032-.167 2.07-.29 3.104-.444"/>
<path fill="black" d="M228.707 219.618c-1.091.562-2.317.497-3.477.659-1.113.155-1.941.643-2.711 1.363-4.053 3.787-8.422 7.197-12.723 10.69-1.877 1.524-3.723 3.088-5.678 4.713l1.337.131c-2.379-.08-4.004 1.542-5.84 2.645a21 21 0 0 1-3.651 1.762c-.614.223-1.377.464-1.588-.585 1.611-.728 2.952-1.888 4.268-2.997 7.05-5.942 13.977-12.033 20.263-18.794 5.493-5.908 10.633-12.107 14.198-19.427 1.315-2.699 2.392-5.487 2.111-8.604-.151-1.679-.923-2.864-2.372-3.748-2.582-1.576-5.409-1.44-8.242-1.39-.558.01-1.118-.024-1.677-.037.402-.25.855-.174 1.287-.177 4.359-.026 8.718-.032 13.076-.064 1.047-.008 2.067.179 3.096.311 3.16.406 5.216 3.713 4.313 7.385-.858 3.487-2.587 6.529-4.645 9.396-4.091 5.7-8.847 10.813-14.006 15.558-.52.478-1.006.995-1.633 1.62 1.579.034 2.908-.527 4.294-.41M232.287 144.538c-1.834 1.613-3.221 3.616-4.745 5.494-2.807 3.46-5.443 7.056-7.944 10.74-2.704 3.983-5.316 8.031-7.661 12.245-2.463 4.427-4.728 8.945-6.468 13.708-1.051 2.879-1.971 5.801-1.975 8.918-1.037-.259-.856-1.106-.835-1.827.022-.754.329-1.481.275-2.249-.016-.236-.028-.509-.285-.613-.316-.128-.57.073-.701.314-1.214 2.224-2.431 4.527-1.77 7.134.678 2.676 2.11 3.165 4.457 2.826.494-.071.973-.429 1.497-.109 1.026 1.124 2.322 1.646 3.823 1.705.509.02 1.019.021 1.528.031-1.23.443-2.533.259-3.79.338-2.535.16-5.039.798-7.62.406-3.369-.511-5.358-2.659-5.458-6.049-.106-3.622 1.106-6.911 2.582-10.112 3.619-7.85 8.615-14.825 13.911-21.599 5.143-6.579 10.682-12.815 16.464-18.835.877-.913 1.916-1.683 2.935-2.445.529-.396 1.18-.765 1.78-.021M231.834 219.167c-1.01.323-2.032.555-3.104.445 1.009-.33 2.032-.556 3.104-.445"/>
<path fill="black" d="M206.132 201.12c-.796.245-1.562.541-2.435.526-2.235-.036-3.863-1.567-4.011-3.844-.163-2.505.879-4.66 1.974-6.793.226-.44.681-.728 1.203-.574.481.143.393.62.428 1.015.073.813-.236 1.57-.322 2.359-.075.69-.073 1.342.524 1.833.489.8 1.316 1.066 2.142 1.142 1.014.093 1.819.392 2.119 1.422.314 1.078-.27 1.838-1.05 2.484-.182.153-.38.287-.572.43"/>
<path fill="black" d="M260.15 199.393c.031 1.188-1.33 2.526-2.353 2.459-.208-.014-.41-.045-.469-.281-.087-.345.137-.531.406-.639.729-.294 1.134-.818 1.32-1.582.072-.294.027-.848.552-.768.473.074.496.555.544.811"/>
</svg>
